<svg width="110" height="122" viewBox="0 0 110 122" fill="none" xmlns="http://www.w3.org/2000/svg">
<path d="M100.98 95.0202L82.9622 90.4662L71.0822 83.9322L70.0922 65.3202H39.4682L38.4782 83.9322L26.5982 90.4662L8.58024 95.0202L2.57424 108.022L0.594238 121.222H108.966L106.986 108.022L100.98 95.0202Z" fill="#F0C7B1"/>
<path d="M39.4682 65.3202L38.4782 83.9322L26.5982 90.4662L8.58024 95.0202L2.57424 108.022L0.594238 121.222H10.2302V108.022L12.0122 96.3402L27.7202 92.1162L44.0222 86.6382L46.3322 65.3202H39.4682Z" fill="#D19271"/>
<path d="M69.1021 76.2762L70.5541 74.5602L70.0921 65.3202H39.4681L38.8081 77.5302L46.2001 82.0842H59.6641L69.1021 76.2762Z" fill="#C27B55"/>
<path d="M50.0278 87.1002L51.3478 92.3142L55.9018 95.3502C55.9018 95.3502 50.2918 93.3702 50.1598 92.9742C50.0278 92.5782 50.0278 87.1002 50.0278 87.1002Z" fill="#D19271"/>
<path d="M107.316 108.022L101.706 94.8222L82.698 89.9382L76.428 86.7702L76.362 85.7802L70.884 79.9722L71.016 82.2822L70.29 90.3342L65.274 95.5482L59.268 96.8022L57.882 100.564L56.496 102.478L51.546 96.3402L44.484 95.5482L40.656 90.7302L38.544 82.0842L38.676 79.9722L33.198 85.7802L33.132 86.7702L26.862 89.9382L7.92 94.8222L2.244 108.022L0 121.222H109.494L107.316 108.022Z" fill="#8A8A8A"/>
<path d="M8.514 108.484L10.89 101.356L27.324 95.0202L32.076 92.9082L32.274 91.5882L39.864 87.8262H39.93L38.544 82.0842L38.676 79.9722L33.198 85.7802L33.132 86.7702L26.862 89.9382L7.92 94.8222L2.244 108.022L0 121.222H8.316L8.514 108.484Z" fill="#7B7B7B"/>
<path d="M76.4282 86.7701L78.2102 99.4421L79.0022 105.184L71.2802 100.102L67.8482 96.6041L65.0762 95.5481L67.7162 97.7921L63.4922 99.5081L58.2782 100.498L62.8982 100.102L57.1562 107.89V121.222H58.2782L57.7502 108.154L62.8982 100.234L63.5582 100.168L68.2442 98.3201L71.0162 101.29L79.7942 106.636L78.7382 98.4521L76.4282 86.7701ZM54.5822 106.372L56.4962 102.478L54.1862 105.778L50.1602 100.036L41.9102 97.7921L44.4182 95.6141L41.6462 96.6701L38.2802 100.102L30.5582 105.184L31.3502 99.4421L33.1322 86.7701L30.8882 98.4521L29.8322 106.636L38.6102 101.29L41.6462 98.0561L41.9762 97.7261L49.7642 100.564L53.7902 106.24L52.9982 106.702L53.7242 121.156H54.7142L53.8562 107.296L54.5822 106.372ZM61.5122 97.9241L60.5222 97.3961L59.9282 98.3201L60.8522 98.9801L61.5122 97.9241ZM55.3742 106.702L56.2982 107.362L56.9582 106.24L55.9682 105.712L55.3742 106.702ZM54.8462 118.978L55.7702 119.638L56.4302 118.516L55.4402 117.988L54.8462 118.978ZM8.84424 95.6801L13.3322 109.54L14.1242 121.222H15.0482L14.3222 109.474L8.84424 95.6801ZM94.9742 108.418L94.1822 121.222H95.4362L96.0962 108.55L100.716 96.5381L94.9742 108.418Z" fill="#6B6B6B"/>
<path d="M72.5999 83.2722L71.8739 82.3482V90.9282L68.3759 96.2082L71.5439 99.2442C71.5439 99.2442 73.0619 91.9182 73.0619 91.4562C73.0619 90.9942 72.5999 83.2722 72.5999 83.2722ZM37.4879 83.3382L37.8179 81.8202L36.6299 83.4702L37.4219 92.3142L38.8079 98.5842L41.3159 95.7462L38.7419 91.7202L37.4879 83.3382Z" fill="#999999"/>
<path d="M31.2842 40.9002L27.7862 34.4982L23.1662 33.9042L21.8462 38.6562L22.1102 44.5302L26.7302 52.0542L30.7562 55.0242L33.2642 47.3682L31.2842 40.9002Z" fill="#F0C7B1"/>
<path d="M27.3243 42.8142L24.6183 36.3462L23.3643 39.7122L23.6283 43.0122L25.3443 47.0382L24.2883 40.8342L25.2783 40.3722L26.1363 47.5002L27.4563 48.8862L27.3243 42.8142Z" fill="#D19271"/>
<path d="M28.842 42.6822L26.73 35.0262L23.166 33.9042L27.786 34.4982L31.284 40.9002L33.264 47.3682L30.756 55.0242L26.73 52.0542L29.106 52.5162L28.842 42.6822Z" fill="#E1AC8F"/>
<path d="M78.2764 40.9002L81.7744 34.4982L86.3944 33.9042L87.7144 38.6562L87.4504 44.5302L82.8304 52.0542L78.8044 55.0242L76.2964 47.3682L78.2764 40.9002Z" fill="#F0C7B1"/>
<path d="M82.2365 42.8142L84.9425 36.3462L86.1965 39.7122L85.9325 43.0122L84.2165 47.0382L85.2725 40.8342L84.2825 40.3722L83.4245 47.5002L82.1045 48.8862L82.2365 42.8142Z" fill="#D19271"/>
<path d="M80.7184 42.6822L82.8304 35.0262L86.3944 33.9042L81.7744 34.4982L78.2764 40.9002L76.2964 47.3682L78.8044 55.0242L82.8304 52.0542L80.4544 52.5162L80.7184 42.6822Z" fill="#E1AC8F"/>
<path d="M83.4242 31.9903C83.2922 25.2583 79.9262 15.6223 79.9262 15.6223C75.3722 7.96625 66.9242 2.75225 66.9242 2.75225C62.1722 1.76225 54.7802 1.23425 54.7802 1.23425C54.7802 1.23425 47.4542 1.76225 42.6362 2.75225C42.6362 2.75225 34.1882 7.96625 29.6342 15.6223C29.6342 15.6223 26.2682 25.1923 26.1362 31.9903L26.7962 49.8763L31.0862 63.8683L38.6102 72.5803L48.0482 78.3883H61.5782L71.0162 72.5803L78.5402 63.8683L82.8302 49.8763L83.4242 31.9903Z" fill="#F0C7B1"/>
<path d="M61.0502 76.0783H47.7182L39.7322 70.7323L34.2542 62.2183L30.3602 49.2823L29.5022 30.6043L32.5382 16.3483L43.3622 4.99625L54.7142 2.48825L66.9242 2.75225C62.1722 1.76225 54.7802 1.23425 54.7802 1.23425C54.7802 1.23425 47.4542 1.76225 42.6362 2.75225C42.6362 2.75225 34.1882 7.96625 29.6342 15.6223C29.6342 15.6223 26.2682 25.1923 26.1362 31.9903L26.7962 49.8763L31.0862 63.8683L38.6102 72.5803L48.0482 78.3883H61.5782L71.0162 72.5803L78.5402 63.8683L70.2242 71.5903L61.0502 76.0783Z" fill="#D19271"/>
<path d="M47.3882 69.0823L51.6782 67.2343H57.8162L62.6342 68.6863L58.2782 66.0463H51.2822L47.3882 69.0823Z" fill="#E1AC8F"/>
<path d="M62.1785 62.4757L58.3241 61.2679L56.1593 61.0435H52.7405L50.5757 61.2679L46.8269 62.4757L45.2759 63.1357L46.3121 64.6009L51.0641 66.6931H57.8357L62.5877 64.6009L63.6239 63.1357L62.1785 62.4757Z" fill="#DA7C87"/>
<path d="M43.3291 62.8519L47.4211 63.9739H60.5551L65.5711 62.5879L60.0931 63.3139H47.3551L43.3291 62.8519Z" fill="#CB5F6C"/>
<path d="M48.9725 39.1842L45.5405 36.1482L39.6005 36.2142L34.9805 38.7222C34.9805 38.7222 38.8085 41.5602 39.7325 41.9562L45.5405 41.6922L48.9725 39.1842Z" fill="white"/>
<path d="M39.4418 40.392L38.9072 37.785L40.3724 35.5608L42.9728 35.0262L45.197 36.4914L45.7316 39.0984L44.2664 41.316L41.6594 41.8506L39.4418 40.392Z" fill="#7B5C33"/>
<path d="M41.5802 40.227L40.5308 39.1776V37.6992L41.5802 36.6564H43.0586L44.1014 37.6992V39.1776L43.0586 40.227H41.5802Z" fill="black"/>
<path d="M45.3488 36.3858L43.0058 34.8414L40.2602 35.4024L38.7158 37.7454L39.2768 40.491L41.6198 42.0354L44.3654 41.4744L45.9098 39.1314L45.3488 36.3858ZM42.2732 40.3392L42.4184 41.5206L42.0356 41.5998V40.3392H42.2732ZM42.3854 40.3392H42.6428L42.9464 41.4084L42.5306 41.4942L42.3854 40.3392ZM42.7616 40.3392H43.0388L43.5734 41.283L43.0586 41.3886L42.7616 40.3392ZM43.0124 40.1082H41.6264L40.6496 39.1314V37.7454L41.6264 36.7686H43.0124L43.9892 37.7454V39.1314L43.0124 40.1082ZM40.3724 40.7946L41.105 39.9102L41.2766 40.0818C41.105 40.425 40.8806 40.8738 40.7816 41.0652L40.3724 40.7946ZM41.0258 39.831L40.2734 40.7286L39.917 40.4976L40.7948 39.6066L41.0258 39.831ZM41.3624 40.1676L41.5208 40.326L41.336 41.4282L40.874 41.1246C40.9466 40.9926 41.0852 40.722 41.3624 40.1676ZM39.455 39.5868L39.3362 39.0192L40.4186 38.8674V39.138L39.455 39.5868ZM40.4186 38.412L39.1976 38.3394L39.1184 37.9632L40.4186 38.115V38.412ZM40.4186 38.5308V38.7552L39.3164 38.907L39.224 38.4582L40.4186 38.5308ZM40.4912 37.5804L39.4154 37.3296L39.884 36.6234L40.8146 37.2636L40.4912 37.5804ZM40.313 35.9634C40.4252 36.0822 40.6892 36.3132 41.27 36.8082L40.8938 37.1844L39.9434 36.531L40.313 35.9634ZM42.1148 36.5376C42.0752 36.2868 41.9828 35.7192 41.9366 35.4156L42.425 35.3166V36.5376H42.1148ZM41.996 36.5376H41.7584L41.1974 35.5674L41.8244 35.4354C41.8838 35.8314 41.963 36.3132 41.996 36.5376ZM44.2202 37.9104L45.263 37.6662L45.3554 38.1282L44.2202 38.2074V37.9104ZM44.2202 37.7916V37.653L44.042 37.4748L45.065 36.6828L45.2432 37.5606L44.2202 37.7916ZM43.9562 37.389L43.712 37.1448L44.5634 36.2802L45.0056 36.5706L43.9562 37.389ZM43.6328 37.0656L43.3094 36.7422L43.7912 35.772L44.4644 36.2142L43.6328 37.0656ZM43.2236 36.6564L43.1114 36.5442H42.9332L43.085 35.31L43.6988 35.7126L43.2236 36.6564ZM43.6856 39.7584L44.5106 40.6296L44.2532 41.0256L43.448 39.996L43.6856 39.7584ZM43.7714 39.6792L43.9298 39.5208L44.9132 40.0356L44.5832 40.5372L43.7714 39.6792ZM44.0156 39.435L44.2202 39.2238V39.1512C44.4446 39.2106 44.9066 39.3426 45.2894 39.4548L44.9792 39.93L44.0156 39.435ZM44.2202 38.3196L45.3818 38.247L45.4676 38.6694L44.2202 38.6166V38.3196ZM42.9728 35.2308L42.8078 36.5376H42.5306V35.2902L42.9332 35.2044L42.9728 35.2308ZM41.0786 35.5938L41.6264 36.5376H41.534L41.3492 36.7224C40.9928 36.4122 40.5242 36.0096 40.379 35.8644L40.478 35.7192L41.0786 35.5938ZM39.3428 37.4286L40.4186 37.6794V37.9962L39.0986 37.8444L39.092 37.818L39.3428 37.4286ZM39.4748 39.7056L40.445 39.2568L40.7156 39.5274L39.8246 40.4382L39.6002 40.2864L39.4748 39.7056ZM41.4416 41.5008L41.633 40.3392H41.93V41.6196L41.699 41.6658L41.4416 41.5008ZM43.6922 41.2566L43.151 40.293L43.3688 40.0752L44.1872 41.1246L44.1608 41.1642L43.6922 41.2566ZM45.3488 39.3558C44.966 39.2436 44.4578 39.0984 44.2136 39.0324V38.7288L45.4874 38.775L45.5468 39.0588L45.3488 39.3558Z" fill="#5C3D14"/>
<path d="M41.9963 36.6829L41.3561 36.4915L40.8809 36.9535L41.0327 37.5937L41.6729 37.7851L42.1481 37.3231L41.9963 36.6829Z" fill="white"/>
<path d="M43.4214 39.4549L43.032 39.2305L42.6426 39.4549V39.9037L43.032 40.1281L43.4214 39.9037V39.4549Z" fill="white"/>
<path d="M33.0664 34.9603V42.8143L38.2804 48.3583H45.6724L50.8864 42.8143V34.9603L45.6724 29.4163H38.2804L33.0664 34.9603ZM35.0464 38.7223L39.6664 36.2143L45.6064 36.1483L48.9724 39.1843L45.5404 41.7583L39.7324 42.0223C38.8744 41.4943 35.0464 38.7223 35.0464 38.7223Z" fill="#F0C7B1"/>
<path d="M49.3025 39.4482L48.5105 39.0522L45.4085 36.3462H39.6005L34.8485 38.9862L34.1885 39.1182L39.4025 35.8182L45.7385 35.7522L49.3025 39.4482Z" fill="black"/>
<path d="M48.7084 38.0623L46.0684 35.3563L39.6004 35.2903L34.2544 37.6663L39.6004 35.6203H46.0024L48.7084 38.0623Z" fill="#E1AC8F"/>
<path d="M60.5884 39.1842L63.9544 36.1482L69.8944 36.2142L74.5144 38.7222C74.5144 38.7222 70.6864 41.5602 69.7624 41.9562L63.9544 41.6922L60.5884 39.1842Z" fill="white"/>
<path d="M64.3637 40.392L63.8291 37.785L65.2943 35.5608L67.9013 35.0262L70.1189 36.4914L70.6535 39.0984L69.1883 41.316L66.5879 41.8506L64.3637 40.392Z" fill="#7B5C33"/>
<path d="M66.5023 40.227L65.4595 39.1776V37.6992L66.5023 36.6564H67.9807L69.0301 37.6992V39.1776L67.9807 40.227H66.5023Z" fill="black"/>
<path d="M70.2707 36.3858L67.9277 34.8414L65.1821 35.4024L63.6377 37.7454L64.1987 40.491L66.5417 42.0354L69.2873 41.4744L70.8317 39.1314L70.2707 36.3858ZM67.1951 40.3392L67.3403 41.5206L66.9575 41.5998V40.3392H67.1951ZM67.3139 40.3392H67.5713L67.8749 41.4084L67.4591 41.4942L67.3139 40.3392ZM67.6901 40.3392H67.9673L68.5019 41.283L67.9871 41.3886L67.6901 40.3392ZM67.9343 40.1082H66.5483L65.5715 39.1314V37.7454L66.5483 36.7686H67.9343L68.9111 37.7454V39.1314L67.9343 40.1082ZM65.2943 40.7946L66.0269 39.9102L66.1985 40.0818C66.0269 40.425 65.8025 40.8738 65.7035 41.0652L65.2943 40.7946ZM65.9477 39.831L65.1953 40.7286L64.8389 40.4976L65.7167 39.6066L65.9477 39.831ZM66.2843 40.1676L66.4427 40.326L66.2579 41.4282L65.7959 41.1246C65.8751 40.9926 66.0071 40.722 66.2843 40.1676ZM64.3769 39.5868L64.2581 39.0192L65.3405 38.8674V39.138L64.3769 39.5868ZM65.3405 38.412L64.1195 38.3394L64.0403 37.9632L65.3405 38.115V38.412ZM65.3405 38.5308V38.7552L64.2383 38.907L64.1459 38.4582L65.3405 38.5308ZM65.4131 37.5804L64.3373 37.3296L64.8059 36.6234L65.7365 37.2636L65.4131 37.5804ZM65.2349 35.9634C65.3471 36.0822 65.6111 36.3132 66.1919 36.8082L65.8157 37.1844L64.8653 36.531L65.2349 35.9634ZM67.0367 36.5376C66.9971 36.2868 66.9047 35.7192 66.8585 35.4156L67.3469 35.3166V36.5376H67.0367ZM66.9179 36.5376H66.6803L66.1193 35.5674L66.7463 35.4354C66.8057 35.8314 66.8849 36.3132 66.9179 36.5376ZM69.1421 37.9104L70.1849 37.6662L70.2773 38.1282L69.1421 38.2008V37.9104ZM69.1421 37.7916V37.653L68.9639 37.4748L69.9869 36.6828L70.1651 37.5606L69.1421 37.7916ZM68.8781 37.389L68.6339 37.1448L69.4853 36.2802L69.9275 36.5706L68.8781 37.389ZM68.5547 37.0656L68.2313 36.7422L68.7131 35.772L69.3863 36.2142L68.5547 37.0656ZM68.1455 36.6564L68.0333 36.5442H67.8551L68.0069 35.31L68.6207 35.7126L68.1455 36.6564ZM68.6141 39.7584L69.4391 40.6296L69.1817 41.0256L68.3765 39.996L68.6141 39.7584ZM68.6933 39.6792L68.8517 39.5208L69.8351 40.0356L69.5051 40.5372L68.6933 39.6792ZM68.9375 39.435L69.1421 39.2304V39.1578C69.3665 39.2172 69.8285 39.3492 70.2113 39.4614L69.9011 39.9366L68.9375 39.435ZM69.1421 38.3196L70.3037 38.247L70.3895 38.6694L69.1421 38.6232V38.3196ZM67.9013 35.2308L67.7363 36.5376H67.4591V35.2902L67.8617 35.2044L67.9013 35.2308ZM66.0005 35.5938L66.5483 36.5376H66.4559L66.2711 36.7224C65.9147 36.4122 65.4461 36.0096 65.3009 35.8644L65.3999 35.7192L66.0005 35.5938ZM64.2713 37.4286L65.3471 37.6794V37.9962L64.0271 37.8444L64.0205 37.818L64.2713 37.4286ZM64.3967 39.7056L65.3669 39.2568L65.6375 39.5274L64.7465 40.4382L64.5221 40.2864L64.3967 39.7056ZM66.3635 41.5008L66.5549 40.3392H66.8519V41.6196L66.6209 41.6658L66.3635 41.5008ZM68.6141 41.2566L68.0729 40.293L68.2907 40.0752L69.1091 41.1246L69.0827 41.1642L68.6141 41.2566ZM70.2773 39.3558C69.8945 39.2436 69.3863 39.0984 69.1421 39.0324V38.7288L70.4159 38.775L70.4753 39.0588L70.2773 39.3558Z" fill="#5C3D14"/>
<path d="M66.9176 36.6829L66.284 36.4915L65.8022 36.9535L65.9606 37.5937L66.5942 37.7851L67.076 37.3231L66.9176 36.6829Z" fill="white"/>
<path d="M68.3433 39.4549L67.9539 39.2305L67.5645 39.4549V39.9037L67.9539 40.1281L68.3433 39.9037V39.4549Z" fill="white"/>
<path d="M71.2803 29.3502H63.8883L58.6743 34.8942V42.7482L63.8883 48.2922H71.2803L76.4943 42.7482V34.9602L71.2803 29.3502ZM69.7623 41.9562L63.9543 41.6922L60.5883 39.1842L63.9543 36.1482L69.8943 36.2142L74.5143 38.7222C74.5143 38.7222 70.6863 41.4942 69.7623 41.9562Z" fill="#F0C7B1"/>
<path d="M60.2583 39.4482L61.0503 39.0522L64.1523 36.3462H69.9603L74.7123 38.9862L75.3723 39.1182L70.1583 35.8182L63.8223 35.7522L60.2583 39.4482Z" fill="black"/>
<path d="M60.8525 38.0623L63.4925 35.3563L69.9605 35.2903L75.3065 37.6663L69.9605 35.6203H63.5585L60.8525 38.0623Z" fill="#E1AC8F"/>
<path d="M50.84 32.7963L50.7454 34.4263L49.3854 35.7584L40.0189 32.7615L34.8713 33.6011L31.7428 36.9471L34.1193 32.4671L39.3984 30.192L46.4425 31.2102L50.84 32.7963Z" fill="#2A232B"/>
<path d="M48.2478 31.8761L48.828 32.1022L48.8964 34.2388L48.2478 31.8761ZM43.8836 30.8211L45.2367 32.6474L43.4822 30.8299L43.8836 30.8211ZM46.4425 31.2102L46.7265 31.2908C47.0525 32.3038 47.5783 34.018 47.5783 34.018L46.0289 31.1541L46.4425 31.2102ZM42.0993 30.6213L42.8267 31.6256L41.1301 30.4689L42.0993 30.6213ZM33.1414 34.3986C33.6111 34.041 34.016 33.6957 34.1983 33.5941C34.0282 33.7606 33.3202 34.6334 32.5876 35.3766L33.1414 34.3986ZM37.0446 31.2419L38.4573 32.318L36.7326 31.3681L37.0446 31.2419ZM34.1194 32.4671L35.1727 31.9991L36.9692 32.2637C37.0341 32.2515 35.376 32.3637 34.1194 32.4671Z" fill="#3A353A"/>
<path d="M58.7201 32.7963L58.8147 34.4263L60.1748 35.7584L69.5413 32.7615L74.6889 33.6011L77.8174 36.9471L75.4408 32.4672L70.1618 30.1921L63.1177 31.2102L58.7201 32.7963Z" fill="#2A232B"/>
<path d="M61.3126 31.8762L60.7324 32.1023L60.664 34.2389L61.3126 31.8762ZM65.6768 30.8212L64.3237 32.6475L66.0782 30.83L65.6768 30.8212ZM63.1179 31.2103L62.8339 31.2909C62.5079 32.3039 61.9821 34.0181 61.9821 34.0181L63.5438 31.0893L63.1179 31.2103ZM67.4611 30.6214L66.7337 31.6257L68.4303 30.469L67.4611 30.6214ZM76.419 34.3987C75.9493 34.0411 75.5444 33.6958 75.3621 33.5942C75.597 33.773 76.2402 34.6335 76.9728 35.3767L76.419 34.3987ZM72.5158 31.242L71.1031 32.3181L72.8278 31.3682L72.5158 31.242ZM75.441 32.4672L74.3877 31.9992L72.5912 32.2638C72.5263 32.2516 74.1195 32.3515 75.441 32.4672Z" fill="#3A353A"/>
<path d="M79.1703 42.0288L76.9131 50.0544L72.963 58.7697L70.7685 59.1459L69.3891 56.1363L67.0692 54.7569L60.9873 54.3807L55.407 55.3212H54.153L48.51 54.3807L42.4281 54.7569L40.1082 56.1363L38.7288 59.1459L36.597 58.7697L32.7096 50.0544L30.3897 42.0288L28.9476 41.8407L27.0039 65.1024L33.0858 74.5074L41.1114 82.1568L49.4505 85.2291H60.1722L68.5113 82.1568L76.5369 74.5074L82.6188 65.1024L83.1831 54.3807L80.6751 41.8407L79.1703 42.0288ZM65.5017 66.1056L59.7333 70.8081L56.5356 71.7486H53.0244L49.8267 70.8081L44.0583 66.1056L43.8075 59.961L44.9988 59.1459L51.2688 58.5189H58.2912L64.5612 59.1459L65.7525 59.961L65.5017 66.1056Z" fill="#3B3128"/>
<path d="M38.6662 69.2406C38.7289 70.1184 40.9234 78.4575 40.9234 78.4575L40.1709 78.5202L39.2932 78.771L37.6629 75.8868L36.6598 76.2003L34.7161 72.3756L33.9637 72.9399L32.3334 65.4159L31.2676 65.6667L30.4525 53.1894L30.3271 42.0288L28.9477 41.8407L26.377 53.2521L27.004 65.1024L33.0859 74.5074L41.1114 82.1568L49.4505 85.2291H60.1722L68.5113 82.1568L76.5369 74.5074L72.2107 77.5797L68.3232 80.8401L67.8843 80.2758L62.8056 82.9092L62.5548 81.906L59.4825 83.0973L55.2189 82.5957L54.4665 83.0973L50.7045 81.7179L49.3879 82.2822L46.0647 79.8996L43.6822 79.7115L41.7384 74.3193L41.8012 73.2534L40.6099 73.8804V67.9239L39.5439 68.4882L40.1082 61.3404L39.2932 61.842L39.8574 58.9578L40.1082 59.8356L41.8012 56.5125L48.7609 55.5093C48.7609 55.5093 54.4665 56.6379 54.7173 56.6379C54.9681 56.6379 61.05 54.318 61.05 54.318L55.4697 55.2585H54.153L48.51 54.3807L42.4282 54.7569L40.1082 56.1363L38.7289 59.1459C38.7289 59.1459 38.6035 68.3001 38.6662 69.2406ZM59.4825 57.8919L55.0935 57.5157L50.5792 58.0173H44.3092L42.7417 59.334L43.8702 62.5317L43.7449 59.961L44.9362 59.1459L51.2062 58.5189H58.2285L64.4985 59.1459L65.6898 59.961L65.439 66.1056L59.6707 70.8708L56.4729 71.8113H52.9617L49.764 70.8708L50.6419 71.874L52.0212 72.1248L54.153 73.0026L55.1562 72.6891L56.8492 73.2534L58.7302 71.9367L60.0468 72.7518L61.05 71.0589L66.4422 66.6072L67.1947 59.6475L66.5677 58.08L59.4825 57.8919ZM72.8377 61.0896C72.8377 61.0896 73.0884 59.2713 72.963 58.7697L72.0225 58.8951L72.8377 61.0896ZM76.8504 50.0544L73.6528 57.1395C74.1544 56.2617 74.7813 55.3839 74.7813 55.3839L76.9132 51.1203L78.7314 45.4773L80.6751 41.7153L79.1703 41.9661L76.8504 50.0544ZM69.9534 80.7147L70.8939 77.9559L69.828 78.8337L71.1447 74.3193L70.5177 75.1344L71.3328 70.3692L71.082 68.9271L70.8939 60.2118L70.6432 62.0928L70.3297 61.2777L70.2669 70.4946L69.7027 69.7422L69.0757 74.0058L68.0097 78.4575L67.5082 78.2067L63.8088 82.6584L65.0001 83.3481L68.5113 82.0314L69.9534 80.7147Z" fill="#2C2219"/>
<path d="M60.5488 53.3807L57.2818 54.1925L56.1136 55.8425L54.7078 56.0537L53.3878 55.7303L52.279 54.1925L49.0582 53.3543L49.0054 51.0245L50.6554 49.1105L52.0348 48.0281H58.087L60.661 51.0575L60.5488 53.3807Z" fill="#F0C7B1"/>
<path d="M53.3151 37.9631L51.9225 41.6723L52.5297 45.5135L51.6123 48.4835H53.5329L54.8859 47.5661L53.2293 47.9555L52.4439 47.8235L53.1435 45.1637L52.3581 41.4545L53.4471 38.5769L53.3151 37.9631Z" fill="#D19271"/>
<path d="M60.8722 51.0114L58.7866 48.6552L58.9582 49.3085L60.3904 51.0509L60.2187 53.1893L58.2652 53.7569L58.4368 53.2752L59.6973 52.7933L59.8294 52.4436L58.0935 52.6152L56.0476 55.4928L54.787 55.7105L53.5923 55.4928L51.5464 52.6152L49.8106 52.4436L49.9426 52.7933L51.2032 53.2752L51.3747 53.7569L49.4212 53.1893L49.2496 51.0509L50.6818 49.3085L50.8534 48.6552L48.7678 51.0114C48.7678 51.0114 48.6358 53.5853 48.814 53.5853C48.9856 53.5853 52.246 54.4169 52.246 54.4169L53.4208 56.1198L54.7935 56.2914L56.2258 56.1198L57.4006 54.4169C57.4006 54.4169 60.6609 53.5853 60.8325 53.5853C61.0041 53.5853 60.8722 51.0114 60.8722 51.0114Z" fill="#D19271"/>
<path d="M56.3184 38.0621L57.6978 41.5469L57.117 43.8305L57.2094 41.1905L56.3184 38.0621Z" fill="#D19271"/>
<path d="M52.8203 49.0841H57.4931L59.5853 51.0971L56.5229 51.0179L55.3151 52.4699L52.8203 49.0841Z" fill="#F8D5C3"/>
<path d="M83.1668 18.249C81.4904 14.4012 70.5278 2.5146 70.5278 2.5146L54.7802 0L39.0326 2.508C39.0326 2.508 28.07 14.388 26.3936 18.2424L25.7798 34.2804L28.8026 36.9402H30.4922L30.974 20.5062L42.3326 9.3918L47.1638 14.8302L54.7802 15.9852L62.3966 14.8302L67.2278 9.3918L78.5864 20.5062L79.0682 36.9402H80.7578L83.7806 34.2804L83.1668 18.249Z" fill="#2C2219"/>
<path d="M70.5277 2.5146L54.7801 0L48.7807 0.956998L41.3755 3.9732C41.3755 3.9732 47.1307 13.134 47.7907 13.134C48.4441 13.134 56.0341 14.3088 56.6875 14.1834C57.3409 14.0514 62.1853 13.53 62.1853 13.53L67.6831 8.5602L79.5895 20.5986L80.1967 36.9468H80.7643L83.7871 34.287L83.1733 18.249C81.4903 14.3946 70.5277 2.5146 70.5277 2.5146Z" fill="#3B3128"/>
</svg>
