<svg width="34" height="34" viewBox="0 0 34 34" fill="none" xmlns="http://www.w3.org/2000/svg">
<path d="M11.4252 28.9211C10.4515 28.4854 8.17666 27.2998 6.85255 24.7403C6.13256 23.3489 5.99279 22.129 5.87284 21.0822C5.71355 19.6926 5.37575 16.7472 7.04867 13.7659C8.25882 11.6097 9.98464 10.3898 11.0333 9.7813C11.5231 11.327 12.1115 12.9767 12.4049 12.9169C12.5778 12.8816 12.5164 12.2809 12.6007 11.5452C12.8482 9.39407 14.0133 8.97002 15.0831 6.18863C15.8795 4.11746 15.6862 3.17554 15.6057 2.85726C15.3988 2.04063 14.9534 1.45067 14.626 1.09367C15.5773 1.24541 17.7656 1.73652 19.5906 3.57598C20.3559 4.34759 21.766 5.76898 21.7461 7.62607C21.7376 8.41846 21.4681 9.35724 21.0277 10.8923C20.7167 11.9756 20.4721 12.5797 20.7664 13.2439C20.9877 13.7432 21.4823 14.207 22.0729 14.2891C23.0973 14.4314 24.0355 13.373 24.2939 12.3949C24.5385 11.4693 24.1592 10.676 24.0326 10.4352C24.5965 10.812 25.5019 11.4999 26.3188 12.5907C28.8436 15.9621 28.7759 20.8496 26.9066 24.4142C26.9066 24.4142 25.8189 26.9019 23.5097 28.3336C23.2434 28.4989 22.8593 28.7026 22.4645 28.5949C21.5295 28.3403 21.0217 26.5672 21.011 26.4394C19.5522 23.3693 18.4362 20.2989 16.9773 17.2289C15.5521 21.5444 14.483 24.7306 14.103 25.8516C14.0952 25.8746 13.9397 26.3273 13.6459 26.8968C13.2785 27.6086 12.9234 28.2763 12.2088 28.6604C11.9012 28.8257 11.6141 28.8918 11.4249 28.9217L11.4252 28.9211Z" fill="#B91C1C"/>
<path d="M10.3801 4.12219C10.1462 4.0523 9.87416 4.75024 9.04084 5.82061C8.58593 6.40522 8.46662 6.45434 8.3876 6.73515C8.20154 7.39595 8.59475 8.07406 8.91019 8.49874C8.80441 8.14615 8.72288 7.64874 8.94293 7.19226C9.07862 6.9105 9.25869 6.79087 9.56343 6.47385C10.2154 5.79606 10.3602 5.56404 10.478 5.26528C10.5749 5.01941 10.6102 4.80345 10.5759 4.5793C10.5516 4.42158 10.5117 4.16154 10.3801 4.12219Z" fill="#B91C1C"/>
<path d="M22.955 1.99907C23.5702 3.8867 24.1806 4.79148 24.6534 5.26527C24.7019 5.31407 24.916 5.525 25.1433 5.85303C25.4339 6.27205 25.8847 6.92246 25.7638 7.68211C25.7361 7.85652 25.6558 8.17637 25.3719 8.53116C25.4496 8.2664 25.5201 7.8754 25.4046 7.45324C25.2544 6.90389 24.8858 6.65392 24.3594 6.14676C23.6977 5.50894 23.0076 4.84374 22.7589 4.05639C22.6336 3.65909 22.5445 2.99011 22.9547 1.99876L22.955 1.99907Z" fill="#B91C1C"/>
<path d="M10.9026 29.7616C11.2769 29.4739 11.9144 29.8243 12.7969 30.1536C12.7969 30.1536 14.495 30.787 16.3244 30.9375C18.5051 31.1166 21.0054 30.4281 21.9422 29.8923C21.9945 29.8624 22.2674 29.704 22.6606 29.631C23.1684 29.5369 23.9621 29.5693 24.1629 29.9575C24.3726 30.3623 23.8601 31.0049 23.7058 31.1985C22.1689 33.1258 18.2957 32.9709 15.5405 32.8314C11.7381 32.6391 11.0805 31.931 10.8371 31.4598C10.5491 30.9013 10.522 30.0538 10.9023 29.7613L10.9026 29.7616Z" fill="#B91C1C"/>
<path d="M14.1689 26.4954C13.8909 26.6828 13.9303 27.1569 13.9511 27.41C13.9838 27.8051 14.0367 28.4448 14.5609 28.7165C14.9582 28.9223 15.5664 28.8861 15.8674 28.4986C16.2023 28.0673 15.9451 27.4736 15.8891 27.3445C15.596 26.6686 14.8848 26.5033 14.7567 26.4734C14.5621 26.4281 14.3436 26.3774 14.1689 26.4951V26.4954Z" fill="#B91C1C"/>
<path d="M16.9559 26.8219C16.7576 26.9082 16.6936 27.1619 16.6946 27.3228C16.6958 27.5293 16.8051 27.8111 17.0648 27.8888C17.2291 27.9379 17.4331 27.8995 17.5657 27.7582C17.7668 27.5438 17.6633 27.2428 17.6529 27.2138C17.5521 26.9365 17.2115 26.7108 16.9562 26.8219H16.9559Z" fill="#B91C1C"/>
<path d="M18.9156 26.3648C18.6049 26.6041 18.5529 26.9601 18.5454 27.018C18.4944 27.4116 18.676 27.9071 19.0897 28.0632C19.4901 28.2147 19.8698 27.9578 19.9387 27.9109C20.3823 27.6105 20.4144 27.0911 20.4179 27.018C20.4239 26.8827 20.4346 26.6481 20.2872 26.452C20.0121 26.0856 19.3308 26.0449 18.9156 26.3648Z" fill="#B91C1C"/>
<path d="M18.6982 24.2962C18.4913 24.3799 18.4236 24.6749 18.4586 24.8839C18.4665 24.9311 18.5083 25.1805 18.7416 25.2976C18.9875 25.4207 19.2245 25.2862 19.2425 25.2759C19.3813 25.194 19.511 25.0312 19.5038 24.8405C19.494 24.5826 19.2412 24.4429 19.1335 24.3834C19.0271 24.3245 18.8587 24.2313 18.6982 24.2962Z" fill="#B91C1C"/>
<path d="M15.889 23.5995C15.5134 23.7389 15.413 24.1863 15.3881 24.2962C15.3702 24.3755 15.2459 24.9289 15.6277 25.2759C15.9809 25.597 16.4689 25.4692 16.5423 25.4499C16.6462 25.4229 17.0006 25.33 17.1521 25.0146C17.3428 24.6169 17.0734 24.1539 16.8473 23.9259C16.7831 23.8614 16.3417 23.431 15.8893 23.5995H15.889Z" fill="#B91C1C"/>
<path d="M16.8253 20.5946C16.5533 20.7334 16.4935 21.0514 16.4768 21.1389C16.4223 21.4276 16.4944 21.8406 16.8253 22.0534C17.1253 22.2467 17.4518 22.1551 17.5002 22.1406C17.7348 22.0707 18.0036 21.8768 18.0663 21.5746C18.1692 21.0778 17.624 20.7265 17.5871 20.7035C17.5043 20.6519 17.1476 20.4296 16.825 20.5946H16.8253Z" fill="#B91C1C"/>
</svg>
